<!DOCTYPE svg PUBLIC "-//W3C//DTD SVG 1.1//EN" "http://www.w3.org/Graphics/SVG/1.1/DTD/svg11.dtd">
<!-- Uploaded to: SVG Repo, www.svgrepo.com, Transformed by: SVG Repo Mixer Tools -->
<svg fill="#eb0000" height="87px" width="87px" version="1.1" id="XMLID_3_" xmlns="http://www.w3.org/2000/svg" xmlns:xlink="http://www.w3.org/1999/xlink" viewBox="0 0 24 24" xml:space="preserve" stroke="#eb0000">
<g id="SVGRepo_bgCarrier" stroke-width="0"/>
<g id="SVGRepo_tracerCarrier" stroke-linecap="round" stroke-linejoin="round"/>
<g id="SVGRepo_iconCarrier"> <g id="social-youtube"> <g id="Lozenge"> <g> <path d="M23.7,7.4c0,0-0.3-1.5-0.9-2.3c-0.9-0.9-2-0.8-2.4-0.9C17.1,4,12,4,12,4l0,0c0,0-5.1,0-8.4,0.2c-0.4,0.1-1.5,0.1-2.4,1 C0.5,5.9,0.3,7.5,0.3,7.5S0,9.4,0,11.2v1.7c0,1.9,0.3,3.7,0.3,3.7s0.3,1.5,0.9,2.3c0.9,0.9,2.1,0.8,2.7,0.9C5.7,20,12,20,12,20 s5.1,0,8.4-0.2c0.4-0.1,1.5-0.1,2.4-1c0.7-0.7,0.9-2.3,0.9-2.3s0.3-1.9,0.3-3.6v-1.7C24,9.3,23.7,7.4,23.7,7.4z M9.3,15.1V8.4 l6.9,3.4L9.3,15.1z"/> </g> </g> </g> </g>
</svg>